custom-analysis
version=1
nRows=7
nColumns=98
inDegrees=no

This file contains tibia displacement and acting force.

Units are S.I. units (seconds, meters, Newtons, ...)
Angles are in degrees.

endheader
time	APT	SIT	knee_angle	aACL_R_force	pACL_R_force	aPCL_R_force	pPCL_R_force	aMCL_R_force	mMCL_R_force	pMCL_R_force	aLCL_R_force	mLCL_R_force	pLCL_R_force	aPCL_L_force	pPCL_L_force	aMCL_L_force	aLCL_L_force	aACL_R_length	pACL_R_length	aPCL_R_length	pPCL_R_length	aMCL_R_length	mMCL_R_length	pMCL_R_length	aLCL_R_length	mLCL_R_length	pLCL_R_length	aPCL_L_length	pPCL_L_length	aMCL_L_length	aLCL_L_length	aACL_R_strain	pACL_R_strain	aPCL_R_strain	pPCL_R_strain	aMCL_R_strain	mMCL_R_strain	pMCL_R_strain	aLCL_R_strain	mLCL_R_strain	pLCL_R_strain	aPCL_L_strain	pPCL_L_strain	aMCL_L_strain	aLCL_L_strain	femur_lat_meniscii_r.femur_lat_r.force.X	femur_lat_meniscii_r.femur_lat_r.force.Y	femur_lat_meniscii_r.femur_lat_r.force.Z	femur_lat_meniscii_r.femur_lat_r.torque.X	femur_lat_meniscii_r.femur_lat_r.torque.Y	femur_lat_meniscii_r.femur_lat_r.torque.Z	femur_lat_meniscii_r.meniscus_lat_r.force.X	femur_lat_meniscii_r.meniscus_lat_r.force.Y	femur_lat_meniscii_r.meniscus_lat_r.force.Z	femur_lat_meniscii_r.meniscus_lat_r.torque.X	femur_lat_meniscii_r.meniscus_lat_r.torque.Y	femur_lat_meniscii_r.meniscus_lat_r.torque.Z	femur_med_meniscii_r.femur_med_r.force.X	femur_med_meniscii_r.femur_med_r.force.Y	femur_med_meniscii_r.femur_med_r.force.Z	femur_med_meniscii_r.femur_med_r.torque.X	femur_med_meniscii_r.femur_med_r.torque.Y	femur_med_meniscii_r.femur_med_r.torque.Z	femur_med_meniscii_r.meniscus_med_r.force.X	femur_med_meniscii_r.meniscus_med_r.force.Y	femur_med_meniscii_r.meniscus_med_r.force.Z	femur_med_meniscii_r.meniscus_med_r.torque.X	femur_med_meniscii_r.meniscus_med_r.torque.Y	femur_med_meniscii_r.meniscus_med_r.torque.Z	femur_med_tibia_r.tibia_upper_r.force.X	femur_med_tibia_r.tibia_upper_r.force.Y	femur_med_tibia_r.tibia_upper_r.force.Z	femur_med_tibia_r.tibia_upper_r.torque.X	femur_med_tibia_r.tibia_upper_r.torque.Y	femur_med_tibia_r.tibia_upper_r.torque.Z	femur_med_tibia_r.femur_med_r.force.X	femur_med_tibia_r.femur_med_r.force.Y	femur_med_tibia_r.femur_med_r.force.Z	femur_med_tibia_r.femur_med_r.torque.X	femur_med_tibia_r.femur_med_r.torque.Y	femur_med_tibia_r.femur_med_r.torque.Z	femur_lat_tibia_r.tibia_upper_r.force.X	femur_lat_tibia_r.tibia_upper_r.force.Y	femur_lat_tibia_r.tibia_upper_r.force.Z	femur_lat_tibia_r.tibia_upper_r.torque.X	femur_lat_tibia_r.tibia_upper_r.torque.Y	femur_lat_tibia_r.tibia_upper_r.torque.Z	femur_lat_tibia_r.femur_lat_r.force.X	femur_lat_tibia_r.femur_lat_r.force.Y	femur_lat_tibia_r.femur_lat_r.force.Z	femur_lat_tibia_r.femur_lat_r.torque.X	femur_lat_tibia_r.femur_lat_r.torque.Y	femur_lat_tibia_r.femur_lat_r.torque.Z	femur_lat_meniscii_force_r	femur_med_meniscii_force_r	femur_lat_tibia_force_r	femur_med_tibia_force_r
      0.00000000	      0.00000000	      0.00000000	     40.00017107	      3.01404166	      0.00000000	    416.70337723	    301.74912899	      0.00000000	      0.00000000	      0.00000000	      0.00000000	      0.00000000	      0.00000000	      0.00000000	      0.00000000	      0.00000001	      0.00000000	      0.03162706	      0.02493442	      0.03415823	      0.03216484	      0.05813124	      0.05909045	      0.05714566	      0.05471396	      0.05074532	      0.04655936	      0.01525851	      0.01651186	      0.06550154	      0.04489616	      0.02004675	     -0.00495944	      0.09850146	      0.07618634	     -0.03158173	     -0.01175790	     -0.02694348	     -0.02256697	     -0.09895992	     -0.11048998	      0.00000079	     -0.32847694	      0.00000060	     -0.00000086	     79.65614035	     53.27196221	      3.50419862	     -2.74309095	      2.00683086	     32.61238754	    -79.65614035	    -53.27196221	     -3.50419862	      1.61838514	     -2.37252018	     -1.48666574	      0.07910405	      0.22416276	      0.04548410	     -0.01334638	     -0.00227148	      0.03443173	     -0.07910405	     -0.22416276	     -0.04548410	     -0.00313684	      0.00137575	     -0.00135034	   -737.48936537	   -878.31723696	    426.77647758	    -24.33038591	     14.18070483	    -13.08115325	    737.48936537	    878.31723696	   -426.77647758	    191.01727066	    -11.74395948	    306.13863618	      0.00000000	      0.00000000	      0.00000000	      0.00000000	      0.00000000	      0.00000000	      0.00000000	      0.00000000	      0.00000000	      0.00000000	      0.00000000	      0.00000000	     95.89203336	      0.24202313	      0.00000000	   1223.71152426
      0.00100000	      0.00002696	     -0.00001930	     40.00017107	      2.39273048	      0.00000000	    425.04589820	    320.96057127	      0.00000000	      0.00000000	      0.00000000	      0.00000000	      0.00000000	      0.00000000	      0.00000000	      0.00000000	      0.00000001	      0.00000000	      0.03162606	      0.02492298	      0.03417148	      0.03217892	      0.05815884	      0.05911722	      0.05717435	      0.05473724	      0.05076970	      0.04658384	      0.01525851	      0.01651186	      0.06550154	      0.04489616	      0.02001436	     -0.00541621	      0.09892758	      0.07665752	     -0.03112194	     -0.01131023	     -0.02645502	     -0.02215110	     -0.09852696	     -0.11002214	      0.00000079	     -0.32847694	      0.00000060	     -0.00000086	     79.21865089	     36.09426498	     35.66685533	    -15.68771840	      2.30856558	     32.59255012	    -79.21865089	    -36.09426498	    -35.66685533	      2.19535670	     -3.07469006	     -1.84973916	      0.06907833	      0.15394838	      0.09694838	     -0.03710635	     -0.00217737	      0.02990513	     -0.06907833	     -0.15394838	     -0.09694838	      0.00065317	      0.00067451	     -0.00154480	   -612.59887347	   -663.33773261	    229.19220726	    -14.87549243	      9.71137998	    -11.90661836	    612.59887347	    663.33773261	   -229.19220726	    105.12420889	     -9.23337798	    254.51233110	      0.00000000	      0.00000000	      0.00000000	      0.00000000	      0.00000000	      0.00000000	      0.00000000	      0.00000000	      0.00000000	      0.00000000	      0.00000000	      0.00000000	     94.07717674	      0.19460449	      0.00000000	    931.57039195
      0.00231353	      0.00012928	     -0.00003581	     40.00017107	     -7.77543637	      0.00000000	    402.74991482	    266.95801931	      0.00000000	      0.00000000	      0.00000000	      0.00000000	      0.00000000	      0.00000000	      0.00000000	      0.00000000	      0.00000001	      0.00000000	      0.03160993	      0.02487444	      0.03416169	      0.03217168	      0.05819937	      0.05915449	      0.05721721	      0.05475905	      0.05079486	      0.04660866	      0.01525851	      0.01651186	      0.06550154	      0.04489616	      0.01949431	     -0.00735316	      0.09861266	      0.07641497	     -0.03044678	     -0.01068697	     -0.02572528	     -0.02176148	     -0.09808018	     -0.10954810	      0.00000079	     -0.32847694	      0.00000060	     -0.00000086	     92.83627902	     32.52764299	     49.20987926	    -21.22092022	      2.75522156	     38.27111776	    -92.83627902	    -32.52764299	    -49.20987926	      2.52759571	     -3.73168921	     -2.36001803	      0.08858343	      0.13101153	      0.10101946	     -0.03946415	     -0.00270534	      0.03811993	     -0.08858343	     -0.13101153	     -0.10101946	      0.00133245	      0.00108584	     -0.00258213	   -423.17848666	   -413.32927461	    117.12267496	     -8.37859104	      6.10203874	     -8.92796760	    423.17848666	    413.32927461	   -117.12267496	     54.72245266	     -6.20956229	    175.99452924	      0.00000000	      0.00000000	      0.00000000	      0.00000000	      0.00000000	      0.00000000	      0.00000000	      0.00000000	      0.00000000	      0.00000000	      0.00000000	      0.00000000	    109.99197461	      0.18765920	      0.00000000	    603.02474395
      0.00362706	      0.00028019	      0.00002293	     40.00017107	    -19.17647146	      0.00000000	    364.38779174	    197.23709712	      0.00000000	      0.00000000	      0.00000000	      0.00000000	      0.00000000	      0.00000000	      0.00000000	      0.00000000	      0.00000001	      0.00000000	      0.03155333	      0.02477722	      0.03406569	      0.03207896	      0.05816962	      0.05911984	      0.05718928	      0.05469850	      0.05073837	      0.04655105	      0.01525851	      0.01651186	      0.06550154	      0.04489616	      0.01766880	     -0.01123268	      0.09552552	      0.07331294	     -0.03094243	     -0.01126641	     -0.02620077	     -0.02284329	     -0.09908322	     -0.11064872	      0.00000079	     -0.32847694	      0.00000060	     -0.00000086	    115.31243104	     39.10073749	     58.90178775	    -25.40005465	      3.37027889	     47.54651486	   -115.31243104	    -39.10073749	    -58.90178775	      3.01563077	     -4.53943511	     -2.94825552	      0.32690127	      0.39075859	      0.28136088	     -0.10928300	     -0.00969583	      0.14043998	     -0.32690127	     -0.39075859	     -0.28136088	      0.00308690	      0.00491169	     -0.01041094	   -444.62052365	   -412.83386479	     95.99045317	     -7.79259918	      6.18119028	     -9.73938490	    444.62052365	    412.83386479	    -95.99045317	     45.97580561	     -6.53759534	    185.06829109	      0.00000000	      0.00000000	      0.00000000	      0.00000000	      0.00000000	      0.00000000	      0.00000000	      0.00000000	      0.00000000	      0.00000000	      0.00000000	      0.00000000	    135.25991654	      0.58199713	      0.00000000	    614.27467559
      0.00536762	      0.00050262	      0.00014034	     40.00017107	    -13.60103362	      0.00000000	    338.17011880	    183.02290646	      0.00000000	      0.00000000	      0.00000000	      0.00000000	      0.00000000	      0.00000000	      0.00000000	      0.00000000	      0.00000001	      0.00000000	      0.03146457	      0.02463242	      0.03389255	      0.03191066	      0.05809338	      0.05903632	      0.05711480	      0.05457194	      0.05061742	      0.04642813	      0.01525851	      0.01651186	      0.06550154	      0.04489616	      0.01480614	     -0.01701129	      0.08995745	      0.06768174	     -0.03221252	     -0.01266323	     -0.02746902	     -0.02510423	     -0.10123091	     -0.11299698	      0.00000079	     -0.32847694	      0.00000060	     -0.00000086	    131.72460061	     42.38282539	     68.65166779	    -29.52042721	      3.81881932	     54.34767270	   -131.72460061	    -42.38282539	    -68.65166779	      3.40626612	     -5.15376117	     -3.41728514	      1.23828740	      1.47190977	      1.13851542	     -0.44401710	     -0.03757084	      0.53180015	     -1.23828740	     -1.47190977	     -1.13851542	      0.01349911	      0.01857938	     -0.03900162	   -578.74896759	   -535.76873342	    108.63276529	     -9.90846441	      8.18234216	    -12.67973988	    578.74896759	    535.76873342	   -108.63276529	     53.23591177	     -8.68813679	    241.01532916	      0.00000000	      0.00000000	      0.00000000	      0.00000000	      0.00000000	      0.00000000	      0.00000000	      0.00000000	      0.00000000	      0.00000000	      0.00000000	      0.00000000	    154.46917422	      2.23519382	      0.00000000	    796.11530628
      0.00736919	      0.00074347	      0.00020247	     40.00017107	     -2.12497090	      0.00000000	    328.39768236	    198.80243654	      0.00000000	      0.00000000	      0.00000000	      0.00000000	      0.00000000	      0.00000000	      0.00000000	      0.00000000	      0.00000001	      0.00000000	      0.03142088	      0.02452790	      0.03376143	      0.03178533	      0.05808028	      0.05901534	      0.05710332	      0.05449620	      0.05054800	      0.04635656	      0.01525851	      0.01651186	      0.06550154	      0.04489616	      0.01339686	     -0.02118216	      0.08574050	      0.06348858	     -0.03243067	     -0.01301414	     -0.02766452	     -0.02645726	     -0.10246346	     -0.11436443	      0.00000079	     -0.32847694	      0.00000060	     -0.00000086	    130.07868195	     37.26121621	     68.95694931	    -29.51614196	      3.74840001	     53.70886522	   -130.07868195	    -37.26121621	    -68.95694931	      3.25205320	     -5.06021851	     -3.45609105	      2.35730332	      2.53896593	      2.44061972	     -0.96180972	     -0.06920831	      1.00279058	     -2.35730332	     -2.53896593	     -2.44061972	      0.03596682	      0.02965023	     -0.06740146	   -485.18799400	   -456.46299063	     89.40700427	     -8.60872896	      7.13132517	    -10.40437141	    485.18799400	    456.46299063	    -89.40700427	     44.20569099	     -7.43034412	    202.05297495	      0.00000000	      0.00000000	      0.00000000	      0.00000000	      0.00000000	      0.00000000	      0.00000000	      0.00000000	      0.00000000	      0.00000000	      0.00000000	      0.00000000	    151.86810919	      4.23790651	      0.00000000	    672.13054071
      0.00937076	      0.00095463	      0.00024264	     40.00017107	     -4.68562194	      0.00000000	    307.76638264	    177.78327274	      0.00000000	      0.00000000	      0.00000000	      0.00000000	      0.00000000	      0.00000000	      0.00000000	      0.00000000	      0.00000001	      0.00000000	      0.03139987	      0.02445467	      0.03365743	      0.03168709	      0.05808734	      0.05901554	      0.05711146	      0.05443670	      0.05049399	      0.04630062	      0.01525851	      0.01651186	      0.06550154	      0.04489616	      0.01271938	     -0.02410468	      0.08239602	      0.06020148	     -0.03231319	     -0.01301081	     -0.02752584	     -0.02752005	     -0.10342241	     -0.11543307	      0.00000079	     -0.32847694	      0.00000060	     -0.00000086	    131.81102166	     42.42567606	     62.13913244	    -26.80000211	      3.70036807	     54.37031624	   -131.81102166	    -42.42567606	    -62.13913244	      3.14493598	     -4.90866408	     -3.36765360	      4.16632161	      3.98223584	      3.76088436	     -1.47313966	     -0.11749183	      1.75886299	     -4.16632161	     -3.98223584	     -3.76088436	      0.04547106	      0.05519689	     -0.11132503	   -401.14197937	   -386.45046053	     77.35364495	     -7.53875544	      6.15981923	     -8.32763330	    401.14197937	    386.45046053	    -77.35364495	     38.23447153	     -6.26258529	    166.99664406	      0.00000000	      0.00000000	      0.00000000	      0.00000000	      0.00000000	      0.00000000	      0.00000000	      0.00000000	      0.00000000	      0.00000000	      0.00000000	      0.00000000	    151.77402676	      6.88191029	      0.00000000	    562.35436555
